<?xml version="1.0" encoding="UTF-8"?>
<svg xmlns="http://www.w3.org/2000/svg" viewBox="0 0 1000 1000">
  <defs>
    <style>
      .cls-1 {
        fill: #fff;
      }
    </style>
  </defs>
  <g id="NOMBRE">
    <g>
      <path class="cls-1" d="M71.28,573.77v84.82h-20.15v-84.82h20.15Z"/>
      <path class="cls-1" d="M105.83,573.77l8.02,36.5h.22l8.23-36.5h27.73v84.82h-17.87v-48.2h-.22l-10.83,48.2h-14.52l-10.51-48.2h-.22v48.2h-18.09v-84.82h28.06Z"/>
      <path class="cls-1" d="M183.61,573.77c15.38,0,22.21,11.27,22.21,26.11,0,17.33-8.99,26.32-25.35,26.32h-3.79v32.39h-20.15v-84.82h27.08ZM180.46,610.28c5.2,0,6.82-3.14,6.82-10.29s-1.62-10.29-6.82-10.29h-3.79v20.58h3.79Z"/>
      <path class="cls-1" d="M263.87,616.24c0,31.96-7.26,44.09-26.54,44.09s-26.11-12.02-26.11-44.09,7.26-44.09,26.43-44.09,26.21,12.02,26.21,44.09ZM243.72,616.24c0-25.56-.76-29.14-6.07-29.14s-6.28,4.33-6.28,29.14.87,29.14,6.17,29.14,6.17-4.12,6.17-29.14Z"/>
      <path class="cls-1" d="M290.52,658.59h-20.15v-84.82h27.84c15.49,0,21.23,9.42,21.23,22.53,0,11.27-4.01,18.63-13.32,20.15v.33c9.86.97,14.19,7.69,14.19,18.96v22.86h-20.15v-21.88c0-7.69-.43-14.62-9.64-12.13v34.01ZM294.63,609.63c5.63,0,6.17-4.01,6.17-10.07,0-6.93-.32-9.86-6.28-9.86h-4.01v19.93h4.12Z"/>
      <path class="cls-1" d="M324.64,591.75v-17.98h50.37v17.98h-15.27v66.83h-20.15v-66.83h-14.95Z"/>
      <path class="cls-1" d="M413.13,573.77l17.33,84.82h-20.15l-1.95-14.84h-16.03l-2.06,14.84h-20.15l17.76-84.82h25.24ZM400.35,591.11l-5.63,35.31h11.27l-5.42-35.31h-.22Z"/>
      <path class="cls-1" d="M459.06,586.99c-6.07,0-6.82,6.17-6.82,29.14s.65,29.14,6.72,29.14c4.98,0,5.52-4.77,5.52-20.8h20.15v5.31c0,23.72-12.35,30.44-25.24,30.44-22.53,0-27.3-12.46-27.3-44.09s6.72-44.09,27.51-44.09c18.31,0,25.02,10.51,25.02,26.86v5.31h-20.15v-4.66c0-9.64-1.52-12.57-5.42-12.57Z"/>
      <path class="cls-1" d="M511.27,573.77v84.82h-20.15v-84.82h20.15Z"/>
      <path class="cls-1" d="M570.41,616.24c0,31.96-7.26,44.09-26.54,44.09s-26.11-12.02-26.11-44.09,7.26-44.09,26.43-44.09,26.21,12.02,26.21,44.09ZM550.26,616.24c0-25.56-.76-29.14-6.07-29.14s-6.28,4.33-6.28,29.14.87,29.14,6.17,29.14,6.17-4.12,6.17-29.14Z"/>
      <path class="cls-1" d="M594.89,573.77l12.89,36.61h.22v-36.61h17.98v84.82h-17.98l-12.78-36.83h-.32v36.83h-17.98v-84.82h17.98Z"/>
      <path class="cls-1" d="M670.6,573.77v17.98h-17.98v14.52h15.49v17.33h-15.49v17.01h17.98v17.98h-38.13v-84.82h38.13Z"/>
      <path class="cls-1" d="M708.62,600.85v-4.66c0-4.98-1.84-9.21-5.74-9.21-4.33,0-6.28,3.79-6.28,7.58,0,16.79,32.71,8.56,32.71,39.54,0,18.09-9.64,26.11-27.41,26.11-16.68,0-25.89-6.28-25.89-23.83v-7.04h19.5v6.07c0,7.26,2.71,9.86,6.61,9.86,4.12,0,6.5-3.58,6.5-8.23,0-16.79-31.52-8.34-31.52-38.46,0-17.11,8.34-26.54,25.35-26.54s24.91,7.37,24.91,23.72v5.09h-18.74Z"/>
      <path class="cls-1" d="M788.23,573.77l8.02,36.5h.22l8.23-36.5h27.73v84.82h-17.87v-48.2h-.22l-10.83,48.2h-14.51l-10.51-48.2h-.22v48.2h-18.09v-84.82h28.05Z"/>
      <path class="cls-1" d="M866.33,573.77c14.3,0,21.66,8.45,21.66,21.12,0,8.99-3.68,16.25-12.24,18.2v.33c10.18,1.08,14.3,11.26,14.3,20.04,0,14.73-7.26,25.13-23.94,25.13h-27.19v-84.82h27.41ZM862.97,607.03c4.88,0,6.39-4.01,6.39-8.56s-1.41-8.77-6.28-8.77h-4.01v17.33h3.9ZM863.19,642.67c3.79,0,6.17-4.01,6.17-11.7s-2.38-11.48-6.17-11.48h-4.12v23.18h4.12Z"/>
      <path class="cls-1" d="M912.91,573.77l7.91,57.09h.22l8.23-57.09h20.15l-15.6,84.82h-25.89l-15.17-84.82h20.15Z"/>
    </g>
  </g>
  <g id="ICONO">
    <path class="cls-1" d="M209.52,446.33c-1.83-17.33-15.78-47.93-35.52-28.09-15.57,15.66-15.3,54.32-9.56,74.27l-9.92,5.11c-9.51-27.21-11.74-90.5,18.82-105.32,15.09-7.32,24.75,1.11,36.17,10.16-10.3-30.59-39.23-40.32-57.28-8.97-14.78,25.69-11.13,52.05-9.63,80.34-26.52-17.1-35.28-53.88-32.67-83.98.87-10.03,7.57-37.1,12.22-45.77,2.27-4.24,7.5-6.23,8.54-10.82,2.12-9.38-6.04-6.49-10.34-13.31,0-4.22,25.79-6.45,30.96-7.67,47.62-11.28,89.49-50.13,137.71-65.98,63.1-20.74,200.07-23.26,265.76-11.4,55.64,10.05,101.99,52.27,150.33,75.66,23.02,11.14,74.5,13.85,102.43,19.49,31.82,6.43,70.29,15.41,97.7,33.14,14.72,9.52,19.93,12.46,19.43,31.09-.15,5.78-5.25,14.54,3.56,17.02,4.55-.79,4.99-13.54,8.33-10.31,6.05,11.79,9.64,23.04,10.42,36.44.82,14.09-2.57,27.7-1.52,41.67s9.17,30.51-9.77,39.19c-13.34,6.11-26.73,1.93-36.71,4.92-1.65.49-11.04,8.71-14.54,10.73-19.83,11.45-38.15,15.2-60.92,10.6-18.54-3.75-19.55-8.34-40.75-8.19-51.63.36-103.08,2.38-154.75,1.48-7.23-.12-14.08-2.47-22.24-1.55-17.24,1.94-27.38,10.47-48.87,8.73-5.15-.42-15.48-1.67-18.78-5.74,35.34.05,49.52-38.38,42.7-68.74-8.15-36.31-49.88-55.86-75.38-22.68-14.4,18.74-14.79,46.82-4.51,67.61-151.79-21.71-304.28,1.5-449.01,47.57,40.4-28.66,87.35-48.47,134.98-62.01,90.93-25.84,188.61-33.6,282.82-25.69,3.09-48.74,43.32-90.02,93.67-68.42-43.32-46.2-93.83-2.41-101.11,47.6-14.43-2.4-29.2-1.39-43.84-1.51-42.44-.34-85.18.18-127.67,6.18-28.03,3.95-55.39,11.27-82.73,17.61-.73-.54,1.49-1.9,1.49-2.22,0-8.82.89-19.81,0-28.25ZM688.27,319.19c-15.48-10.45-31.7-20.97-48.06-29.98-53.91-29.68-86.27-32.46-147.39-34-24.49-.62-49.33-.35-73.66,1.56,17.66,15.6,33.72,40.22,52,54.29,20.39,15.7,78.47,10.86,104.92,11.05,7.5.06,14.68.04,22.18,0,29.99-.15,60.47,2.1,90.01-2.93ZM447.41,340.01c-20.34-30.69-54.85-76.66-94.44-80.25-33.16-3.01-99.82,16.98-120.28,44.71-7.6,10.3-8.96,15.25,4.74,18.79,37.5,9.67,96.92,13.49,136.31,15.35,1.62.08,7.03.99,6.75-1.54-12.69-1.65-29.57-3.77-31.18-19.3,14.52-4.09,31.57-6.1,46.64-4.35,20.03,2.32,32.45,21.38,51.45,26.59ZM753.7,405.45c-33.26-6-66-14.67-99.35-20.36-18.29-3.12-36.66-7.22-55.29-6.4,14.13,20.49,36.08,35.95,60.66,41.17,12.04,2.56,49.29,6.59,60.43,4.81,3.73-.6,27.41-13.17,31.63-15.9,1.45-.94,2.66.17,1.92-3.32ZM689.76,464.93c-10.01-2.07-38.35,18.25-39.91,26.35-2.34,12.16,23.15,16.72,31.94,18.03,44.87,6.69,111.68,4.9,157.39,1.67,23.49-1.66,53.69-3.32,73.61-15.6-60.41,3.44-123.01,8.02-183.68,5.27-13.15-.6-29.44-1.92-41.99-5.59-2.55-.75-16.42-5.86-16.69-7.14l19.34-23Z"/>
  </g>
</svg>