<?xml version="1.0" encoding="UTF-8"?>
<svg id="Capa_1" data-name="Capa 1" xmlns="http://www.w3.org/2000/svg" viewBox="0 0 61.73 32.35">
  <defs>
    <style>
      .cls-1 {
        fill: #02243d;
      }
    </style>
  </defs>
  <path class="cls-1" d="M10.86,21.09c-.13-1.67-1.09-4.63-2.45-2.71-1.07,1.51-1.05,5.24-.66,7.17l-.68.49c-.66-2.63-.81-8.73,1.3-10.16,1.04-.71,1.7.11,2.49.98-.71-2.95-2.7-3.89-3.95-.87-1.02,2.48-.77,5.02-.66,7.75-1.83-1.65-2.43-5.2-2.25-8.11.06-.97.52-3.58.84-4.42.16-.41.52-.6.59-1.04.15-.9-.42-.63-.71-1.29,0-.41,1.78-.62,2.13-.74,3.28-1.09,6.16-4.84,9.49-6.37C20.68-.22,30.11-.46,34.64.68c3.83.97,7.03,5.04,10.36,7.3,1.59,1.07,5.13,1.34,7.06,1.88,2.19.62,4.84,1.49,6.73,3.2,1.01.92,1.37,1.2,1.34,3-.01.56-.36,1.4.25,1.64.31-.08.34-1.31.57-1,.42,1.14.66,2.22.72,3.52.06,1.36-.18,2.67-.1,4.02.08,1.41.63,2.94-.67,3.78-.92.59-1.84.19-2.53.48-.11.05-.76.84-1,1.04-1.37,1.11-2.63,1.47-4.2,1.02-1.28-.36-1.35-.8-2.81-.79-3.56.03-7.1.23-10.66.14-.5-.01-.97-.24-1.53-.15-1.19.19-1.89,1.01-3.37.84-.36-.04-1.07-.16-1.29-.55,2.43,0,3.41-3.7,2.94-6.63-.56-3.5-3.44-5.39-5.19-2.19-.99,1.81-1.02,4.52-.31,6.52-10.46-2.1-20.96.14-30.93,4.59,2.78-2.77,6.02-4.68,9.3-5.99,6.26-2.49,12.99-3.24,19.48-2.48.21-4.7,2.98-8.69,6.45-6.6-2.98-4.46-6.46-.23-6.96,4.59-.99-.23-2.01-.13-3.02-.15-2.92-.03-5.87.02-8.79.6-1.93.38-3.81,1.09-5.7,1.7-.05-.05.1-.18.1-.21,0-.85.06-1.91,0-2.73h0ZM43.83,8.82c-1.07-1.01-2.18-2.02-3.31-2.89-3.71-2.87-5.94-3.13-10.15-3.28-1.69-.06-3.4-.03-5.07.15,1.22,1.51,2.32,3.88,3.58,5.24,1.4,1.52,5.41,1.05,7.23,1.07.52,0,1.01,0,1.53,0,2.07-.01,4.17.2,6.2-.28h0ZM27.24,10.83c-1.4-2.96-3.78-7.4-6.5-7.75-2.28-.29-6.88,1.64-8.29,4.31-.52.99-.62,1.47.33,1.81,2.58.93,6.68,1.3,9.39,1.48.11,0,.48.1.46-.15-.87-.16-2.04-.36-2.15-1.86,1-.39,2.18-.59,3.21-.42,1.38.22,2.24,2.06,3.54,2.57h0ZM48.34,17.15c-2.29-.58-4.55-1.42-6.84-1.96-1.26-.3-2.53-.7-3.81-.62.97,1.98,2.49,3.47,4.18,3.97.83.25,3.4.64,4.16.46.26-.06,1.89-1.27,2.18-1.53.1-.09.18.02.13-.32h0ZM43.94,22.89c-.69-.2-2.64,1.76-2.75,2.54-.16,1.17,1.59,1.61,2.2,1.74,3.09.65,7.69.47,10.84.16,1.62-.16,3.7-.32,5.07-1.51-4.16.33-8.47.77-12.65.51-.91-.06-2.03-.19-2.89-.54-.18-.07-1.13-.57-1.15-.69l1.33-2.22h0Z"/>
</svg>